<?xml version="1.0" encoding="UTF-8"?>
<svg width="309" height="348" version="1.1" xmlns="http://www.w3.org/2000/svg" xmlns:cc="http://creativecommons.org/ns#" xmlns:dc="http://purl.org/dc/elements/1.1/" xmlns:rdf="http://www.w3.org/1999/02/22-rdf-syntax-ns#">
 <metadata>
  <rdf:RDF>
   <cc:Work rdf:about="">
    <dc:format>image/svg+xml</dc:format>
    <dc:type rdf:resource="http://purl.org/dc/dcmitype/StillImage"/>
    <dc:title/>
   </cc:Work>
  </rdf:RDF>
 </metadata>
 <rect x=".42919" y=".057359" width="309" height="309" rx="60" ry="60" fill="#cfc702" stroke-width="1.9412"/>
 <text x="50%" y="329" dominant-baseline="middle" fill="#ff7f27" font-family="Eurostar" font-size="30px" font-weight="bold" text-anchor="middle"><tspan fill="#565557">DIAGRAL e-ONE</tspan></text>
 <g transform="matrix(.1724 0 0 .15653 107.21 104.41)" fill="#565557">
  <g fill="#565557">
   <path d="m438.46 269.82h-258.58v-112.42c0-24.829 8.782-46.029 26.347-63.593 17.564-17.564 38.758-26.346 63.593-26.346 24.822 0 46.023 8.782 63.587 26.346s26.346 38.771 26.346 63.593c0 6.095 2.223 11.365 6.678 15.808 4.449 4.461 9.719 6.67 15.807 6.67h22.486c6.088 0 11.357-2.209 15.807-6.67 4.449-4.45 6.678-9.719 6.678-15.808 0-43.324-15.404-80.393-46.199-111.2-30.798-30.796-67.861-46.193-111.19-46.193-43.336 0-80.398 15.397-111.19 46.193-30.802 30.808-46.2 67.877-46.2 111.2v112.42h-11.243c-9.37 0-17.338 3.28-23.893 9.841-6.561 6.561-9.834 14.517-9.834 23.881v202.37c0 9.376 3.274 17.332 9.834 23.893 6.555 6.561 14.517 9.841 23.893 9.841h337.27c9.363 0 17.332-3.28 23.893-9.841 6.555-6.561 9.836-14.517 9.836-23.893v-202.37c0-9.357-3.281-17.319-9.836-23.88-6.561-6.56-14.53-9.841-23.893-9.841zm-142.23 140.37v65.992c0 13.299-10.783 24.082-24.082 24.082h-4.651c-13.299 0-24.082-10.783-24.082-24.082v-65.992c-14.137-8.831-23.574-24.485-23.574-42.381 0-27.607 22.381-49.981 49.982-49.981s49.982 22.381 49.982 49.981c-1e-3 17.902-9.439 33.557-23.575 42.381zm-915.59-89.812v-493.52s-0.45715-109 0-164.51c0.29562-35.894 16.473-69.859 30.158-102.44 13.952-33.215 30.515-65.851 52.366-93.421 28.05-35.393 61.514-66.755 98.804-89.564 36.101-22.081 76.094-43.471 117.39-43.597 47.91-0.14715 149.36 0 149.36 0h896.15s98.354-0.5024 149.36 0c40.48 0.39873 79.901 20.076 115.52 41.255 34.821 20.701 65.732 49.823 92.575 81.845 24.313 29.004 44.894 62.383 60.413 97.967 14.802 33.941 30.553 70.298 30.206 107.95-0.512 55.568 0 164.51 0 164.51v987.05s-0.9754 108.97 0 164.51c0.6746 38.412-15.775 75.601-31.415 109.94-17.284 37.951-40.962 72.673-67.662 103.3-23.269 26.688-49.86 50.671-79.279 68.537-37.298 22.651-77.769 47.297-120.36 47.244-49.058-0.062-149.36 0-149.36 0h-896.15s-98.928-0.426-149.36 0c-32.658 0.2758-63.909-17.048-93.483-32.309-32.313-16.674-63.5-37.524-89.998-63.848-30.975-30.771-58.409-67.153-78.222-107.58-18.938-38.645-36.604-81.365-37.016-125.28-0.48312-51.473 0-164.51 0-164.51v-493.53m987.72 776.57c46.879-6.6595 93.052-18.709 137.7-35.619 44.684-16.925 87.835-38.719 128.63-64.851 40.893-26.197 79.414-56.753 114.73-91.134 35.456-34.515 67.682-72.885 95.836-114.57 34.73-51.419 41.833-66.611 41.92-89.66 0.16647-44.387-48.618-72.916-82.139-48.035-6.5366 4.8518-22.128 25.117-34.648 45.033-31.566 50.213-72.771 97.623-118.95 138.14-46.197 40.527-97.372 74.153-148.85 96.78-40.427 17.768-75.181 29.763-110.56 37.326-35.626 7.6153-71.89 10.738-115.22 10.738-43.335 0-79.599-3.123-115.22-10.738-35.383-7.5635-70.137-19.558-110.56-37.326-51.483-22.627-102.66-56.253-148.85-96.78-46.18-40.513-87.385-87.922-118.95-138.14-12.52-19.917-28.112-40.182-34.648-45.033-23.531-17.466-56.05-9.1868-75.086 19.117-9.6283 14.316-9.3624 42.17 0.60561 63.445 12.747 27.206 41.893 68.369 75.212 108.51 29.587 35.643 62.465 70.478 90.073 94.016 33.897 28.9 70.817 54.607 109.67 76.629 38.528 21.838 78.958 40.054 120.23 54.169 41.848 14.313 84.559 24.41 127.03 29.793 44.123 5.5928 126.04 4.7317 172.08-1.8091m224.16-453.37c19.736-6.5128 43.063-30.629 50.693-52.408 4.4753-12.775 5.8359-26.046 6.2339-122.57 0.12935-31.336 0.15719-71.446 0.15719-123.16v-227.48l-8.2528-20.103c-4.539-11.056-15.566-27.594-24.504-36.75-8.1311-8.3293-49.431-40.511-99.087-78.068-32.381-24.492-68.316-51.27-100.92-75.211-52.043-38.212-95.607-69.196-102.71-72.118-18.711-7.6954-55.959-7.6954-74.67 0-7.1053 2.9223-50.67 33.906-102.71 72.118-32.606 23.941-68.54 50.719-100.92 75.211-49.656 37.558-90.956 69.739-99.087 78.069-8.9383 9.1561-19.965 25.694-24.504 36.75l-8.2528 20.103v227.48c0 51.717 0.02784 91.827 0.15707 123.16 0.39814 96.52 1.7587 109.79 6.2339 122.57 7.2361 20.656 30.664 45.759 48.621 52.096 5.5278 1.9509 71.192 3.3046 158.33 4.0419 48.394 0.40952 103.41 0.62865 158.43 0.65497 55.015 0.0256 110.03-0.14119 158.43-0.50471 86.904-0.65324 152.46-1.9404 158.34-3.88v-4.5e-4m-843.97-655.9c6.5366-4.8518 22.128-25.117 34.648-45.033 31.565-50.213 72.771-97.623 118.95-138.14 46.197-40.527 97.372-74.153 148.85-96.78 40.427-17.768 75.181-29.763 110.56-37.326 35.626-7.6154 71.89-10.738 115.22-10.738 43.335 0 79.599 3.1229 115.22 10.738 35.383 7.5634 70.137 19.558 110.56 37.326 51.483 22.627 102.66 56.253 148.85 96.78 46.18 40.513 87.385 87.922 118.95 138.14 12.52 19.917 28.112 40.182 34.648 45.033 33.521 24.881 82.305-3.6478 82.139-48.035-0.087-23.234-7.9364-40.004-42.327-90.434-33.394-48.969-71.583-92.887-113.6-131.23-42.468-38.751-88.849-71.806-138.15-98.619-49.11-26.711-101.12-47.23-155.03-61.017-52.99-13.551-107.83-20.6-163.58-20.639-55.059-0.0383-109.62 7.2349-162.57 21.204-53.271 14.054-104.91 34.886-153.79 61.871-48.82 26.953-94.883 60.045-137.06 98.652-41.833 38.293-79.843 82.012-112.93 130.55-34.631 50.807-45.416 75.432-42.205 96.368 6.3822 41.608 51.697 64.275 82.615 41.326" fill="#565557"/>
  </g>
 </g>
</svg>
